<?xml version="1.0" standalone="no"?>
<!DOCTYPE svg PUBLIC "-//W3C//DTD SVG 1.0//EN" "http://www.w3.org/TR/2001/REC-SVG-20010904/DTD/svg10.dtd">
<svg xmlns="http://www.w3.org/2000/svg" xmlns:xlink="http://www.w3.org/1999/xlink" id="body_1" width="50" height="35">

<g transform="matrix(0.3521127 0 0 0.35 0 0)">
	<g>
        <path d="M67.5 12.5C 66.1667 9.83333 64.8333 7.16667 63.5 4.5C 63.5 3.5 63.5 2.5 63.5 1.5C 67.5138 1.33449 71.5138 1.50115 75.5 2C 73.8937 6.41258 71.227 9.91258 67.5 12.5z" stroke="none" fill="#08686D" fill-rule="nonzero" />
	</g>
	<g>
        <path d="M77.5 1.5C 77.9528 2.45837 78.6195 3.2917 79.5 4C 77.3707 8.97472 74.8707 13.8081 72 18.5C 71.5831 17.244 70.7498 16.5774 69.5 16.5C 68.8333 15.1667 68.1667 13.8333 67.5 12.5C 71.227 9.91258 73.8937 6.41258 75.5 2C 71.5138 1.50115 67.5138 1.33449 63.5 1.5C 63.5 2.5 63.5 3.5 63.5 4.5C 62.6091 3.73867 61.9424 2.73867 61.5 1.5C 66.9864 0.185264 72.3197 0.185264 77.5 1.5z" stroke="none" fill="#0F7D86" fill-rule="nonzero" />
	</g>
	<g>
        <path d="M77.5 1.5C 79.8333 1.83333 81.1667 3.16667 81.5 5.5C 81.0388 7.5504 80.3721 9.5504 79.5 11.5C 76.8557 14.1085 74.689 17.1085 73 20.5C 72.6174 19.944 72.1174 19.6107 71.5 19.5C 70.5987 18.7095 69.9321 17.7095 69.5 16.5C 70.7498 16.5774 71.5831 17.244 72 18.5C 74.8707 13.8081 77.3707 8.97472 79.5 4C 78.6195 3.2917 77.9528 2.45837 77.5 1.5z" stroke="none" fill="#138D98" fill-rule="nonzero" />
	</g>
	<g>
        <path d="M81.5 5.5C 82.1667 5.5 82.5 5.83333 82.5 6.5C 82.2606 8.4672 82.5939 10.3005 83.5 12C 81.0821 16.0014 79.0821 20.1681 77.5 24.5C 76.0413 24.5674 74.7079 24.2341 73.5 23.5C 72.3263 22.4863 71.6596 21.153 71.5 19.5C 72.1174 19.6107 72.6174 19.944 73 20.5C 74.689 17.1085 76.8557 14.1085 79.5 11.5C 80.3721 9.5504 81.0388 7.5504 81.5 5.5z" stroke="none" fill="#179AA9" fill-rule="nonzero" />
	</g>
	<g>
        <path d="M82.5 6.5C 88.0079 16.1824 93.0079 26.1824 97.5 36.5C 97.1543 40.8524 95.4876 44.5191 92.5 47.5C 91.0821 45.6921 89.0821 45.0254 86.5 45.5C 88.1394 41.2841 88.9727 36.9508 89 32.5C 86.7261 34.7127 85.2261 37.3793 84.5 40.5C 84.0431 41.2975 83.3764 41.6309 82.5 41.5C 78.9922 35.8177 75.9922 29.8177 73.5 23.5C 74.7079 24.2341 76.0413 24.5674 77.5 24.5C 79.0821 20.1681 81.0821 16.0014 83.5 12C 82.5939 10.3005 82.2606 8.4672 82.5 6.5z" stroke="none" fill="#1EA9B9" fill-rule="nonzero" fill-opacity="0.99607843" />
	</g>
	<g>
        <path d="M58.5 28.5C 59.8333 28.5 61.1667 28.5 62.5 28.5C 56.2235 40.0588 50.7235 52.0588 46 64.5C 45.5045 62.5273 45.3379 60.5273 45.5 58.5C 46.4279 55.5465 47.2612 52.5465 48 49.5C 51.7266 42.6086 55.2266 35.6086 58.5 28.5z" stroke="none" fill="#1697A6" fill-rule="nonzero" />
	</g>
	<g>
        <path d="M50.5 28.5C 51.9778 28.238 53.3112 28.5713 54.5 29.5C 49.228 38.3797 44.728 47.713 41 57.5C 40.6174 56.944 40.1174 56.6107 39.5 56.5C 38.3622 53.6965 38.1955 50.6965 39 47.5C 42 41.5 45 35.5 48 29.5C 48.6708 28.7476 49.5041 28.4142 50.5 28.5z" stroke="none" fill="#35C7B5" fill-rule="nonzero" fill-opacity="0.99607843" />
	</g>
	<g>
        <path d="M86.5 45.5C 85.8333 46.5 85.1667 47.5 84.5 48.5C 84.1218 46.079 83.4552 43.7457 82.5 41.5C 83.3764 41.6309 84.0431 41.2975 84.5 40.5C 85.2261 37.3793 86.7261 34.7127 89 32.5C 88.9727 36.9508 88.1394 41.2841 86.5 45.5z" stroke="none" fill="#24B1B9" fill-rule="nonzero" />
	</g>
	<g>
        <path d="M50.5 28.5C 55.6405 27.5119 60.9738 27.1786 66.5 27.5C 66.7373 28.791 66.404 29.791 65.5 30.5C 65.1788 28.9519 64.1788 28.2852 62.5 28.5C 61.1667 28.5 59.8333 28.5 58.5 28.5C 57.5041 28.4142 56.6708 28.7476 56 29.5C 51.7565 38.9862 47.2565 48.3196 42.5 57.5C 42.0431 58.2975 41.3764 58.6309 40.5 58.5C 39.6618 58.1583 39.3284 57.4916 39.5 56.5C 40.1174 56.6107 40.6174 56.944 41 57.5C 44.728 47.713 49.228 38.3797 54.5 29.5C 53.3112 28.5713 51.9778 28.238 50.5 28.5z" stroke="none" fill="#2ABAB9" fill-rule="nonzero" />
	</g>
	<g>
        <path d="M101.5 45.5C 101.662 47.5273 101.495 49.5273 101 51.5C 98.0602 57.0459 95.3935 62.7126 93 68.5C 92.2917 69.3805 91.4584 70.0472 90.5 70.5C 89.8333 70.5 89.1667 70.5 88.5 70.5C 91.4344 62.6274 94.9344 54.9607 99 47.5C 99.7083 46.6195 100.542 45.9528 101.5 45.5z" stroke="none" fill="#38CAB4" fill-rule="nonzero" fill-opacity="0.9882353" />
	</g>
	<g>
        <path d="M99.5 42.5C 94.5864 51.3259 89.9197 60.3259 85.5 69.5C 86.325 70.3857 87.325 70.719 88.5 70.5C 89.1667 70.5 89.8333 70.5 90.5 70.5C 87.7131 71.4767 84.7131 71.81 81.5 71.5C 81.5 71.1667 81.5 70.8333 81.5 70.5C 82.5 70.5 83.5 70.5 84.5 70.5C 88.2881 60.9233 92.6214 51.59 97.5 42.5C 98.2565 41.2267 98.9232 41.2267 99.5 42.5z" stroke="none" fill="#29BAB8" fill-rule="nonzero" />
	</g>
	<g>
        <path d="M86.5 45.5C 89.0821 45.0254 91.0821 45.6921 92.5 47.5C 90.7381 51.3617 88.7381 55.0283 86.5 58.5C 84.477 58.2847 82.1437 58.2847 79.5 58.5C 80.6589 54.8487 82.3256 51.5154 84.5 48.5C 85.1667 47.5 85.8333 46.5 86.5 45.5z" stroke="none" fill="#148C98" fill-rule="nonzero" />
	</g>
	<g>
        <path d="M58.5 28.5C 55.2266 35.6086 51.7266 42.6086 48 49.5C 47.2612 52.5465 46.4279 55.5465 45.5 58.5C 44.5269 60.9479 44.1936 63.6146 44.5 66.5C 42.659 64.1515 41.3257 61.4848 40.5 58.5C 41.3764 58.6309 42.0431 58.2975 42.5 57.5C 47.2565 48.3196 51.7565 38.9862 56 29.5C 56.6708 28.7476 57.5041 28.4142 58.5 28.5z" stroke="none" fill="#22AEB9" fill-rule="nonzero" />
	</g>
	<g>
        <path d="M53.5 53.5C 54.1667 53.5 54.8333 53.5 55.5 53.5C 56.6737 54.5137 57.3404 55.847 57.5 57.5C 57.0283 60.8153 55.195 63.1486 52 64.5C 51.5172 63.552 51.3505 62.552 51.5 61.5C 51.9628 58.779 52.6295 56.1123 53.5 53.5z" stroke="none" fill="#096B70" fill-rule="nonzero" />
	</g>
	<g>
        <path d="M86.5 58.5C 86.0075 60.8185 85.0075 62.8185 83.5 64.5C 81.5564 63.1723 79.5564 62.839 77.5 63.5C 77.8925 61.7162 78.5592 60.0495 79.5 58.5C 82.1437 58.2847 84.477 58.2847 86.5 58.5z" stroke="none" fill="#0D767E" fill-rule="nonzero" fill-opacity="0.99607843" />
	</g>
	<g>
        <path d="M62.5 28.5C 64.1788 28.2852 65.1788 28.9519 65.5 30.5C 61.8855 38.0606 58.5521 45.7273 55.5 53.5C 54.8333 53.5 54.1667 53.5 53.5 53.5C 50.9841 57.7169 48.8175 62.7169 47 68.5C 46.2917 67.6195 45.4584 66.9528 44.5 66.5C 44.1936 63.6146 44.5269 60.9479 45.5 58.5C 45.3379 60.5273 45.5045 62.5273 46 64.5C 50.7235 52.0588 56.2235 40.0588 62.5 28.5z" stroke="none" fill="#1A9FAE" fill-rule="nonzero" />
	</g>
	<g>
        <path d="M99.5 42.5C 99.8333 42.5 100.167 42.5 100.5 42.5C 101.404 43.209 101.737 44.209 101.5 45.5C 100.542 45.9528 99.7083 46.6195 99 47.5C 94.9344 54.9607 91.4344 62.6274 88.5 70.5C 87.325 70.719 86.325 70.3857 85.5 69.5C 89.9197 60.3259 94.5864 51.3259 99.5 42.5z" stroke="none" fill="#31C4B6" fill-rule="nonzero" />
	</g>
	<g>
        <path d="M57.5 57.5C 58.6737 58.5137 59.3404 59.847 59.5 61.5C 59.6495 62.552 59.4828 63.552 59 64.5C 56.6142 65.7633 54.7808 67.5967 53.5 70C 52.552 70.4828 51.552 70.6495 50.5 70.5C 50.19 67.2869 50.5233 64.2869 51.5 61.5C 51.3505 62.552 51.5172 63.552 52 64.5C 55.195 63.1486 57.0283 60.8153 57.5 57.5z" stroke="none" fill="#0F7F89" fill-rule="nonzero" />
	</g>
	<g>
        <path d="M97.5 36.5C 99.0075 38.1815 100.008 40.1815 100.5 42.5C 100.167 42.5 99.8333 42.5 99.5 42.5C 98.9232 41.2267 98.2565 41.2267 97.5 42.5C 92.6214 51.59 88.2881 60.9233 84.5 70.5C 83.5 70.5 82.5 70.5 81.5 70.5C 82.1667 68.5 82.8333 66.5 83.5 64.5C 85.0075 62.8185 86.0075 60.8185 86.5 58.5C 88.7381 55.0283 90.7381 51.3617 92.5 47.5C 95.4876 44.5191 97.1543 40.8524 97.5 36.5z" stroke="none" fill="#21AFB8" fill-rule="nonzero" />
	</g>
	<g>
        <path d="M83.5 64.5C 82.8333 66.5 82.1667 68.5 81.5 70.5C 78.9407 70.8016 76.6074 70.4682 74.5 69.5C 74.9925 67.1815 75.9925 65.1815 77.5 63.5C 79.5564 62.839 81.5564 63.1723 83.5 64.5z" stroke="none" fill="#096A6F" fill-rule="nonzero" fill-opacity="0.99607843" />
	</g>
	<g>
        <path d="M59.5 61.5C 60.6737 62.5137 61.3404 63.847 61.5 65.5C 61.7035 67.3904 61.0368 68.8904 59.5 70C 56.9406 71.7774 54.2739 73.2774 51.5 74.5C 50.7659 73.2921 50.4326 71.9587 50.5 70.5C 51.552 70.6495 52.552 70.4828 53.5 70C 54.7808 67.5967 56.6142 65.7633 59 64.5C 59.4828 63.552 59.6495 62.552 59.5 61.5z" stroke="none" fill="#14929F" fill-rule="nonzero" />
	</g>
	<g>
        <path d="M61.5 65.5C 62.6737 66.5137 63.3404 67.847 63.5 69.5C 60.8194 73.4964 57.1527 76.4964 52.5 78.5C 51.5713 77.3112 51.238 75.9778 51.5 74.5C 54.2739 73.2774 56.9406 71.7774 59.5 70C 61.0368 68.8904 61.7035 67.3904 61.5 65.5z" stroke="none" fill="#19A1B1" fill-rule="nonzero" />
	</g>
	<g>
        <path d="M74.5 69.5C 76.6074 70.4682 78.9407 70.8016 81.5 70.5C 81.5 70.8333 81.5 71.1667 81.5 71.5C 78.7531 71.8134 76.0865 71.48 73.5 70.5C 73.6236 69.8933 73.9569 69.56 74.5 69.5z" stroke="none" fill="#0E8086" fill-rule="nonzero" fill-opacity="0.4509804" />
	</g>
	<g>
        <path d="M53.5 53.5C 52.6295 56.1123 51.9628 58.779 51.5 61.5C 50.5233 64.2869 50.19 67.2869 50.5 70.5C 50.4326 71.9587 50.7659 73.2921 51.5 74.5C 51.238 75.9778 51.5713 77.3112 52.5 78.5C 57.1527 76.4964 60.8194 73.4964 63.5 69.5C 65.9236 72.0078 67.5903 75.0078 68.5 78.5C 63.2863 80.4047 58.953 83.4047 55.5 87.5C 51.5821 80.6654 47.9154 73.6654 44.5 66.5C 45.4584 66.9528 46.2917 67.6195 47 68.5C 48.8175 62.7169 50.9841 57.7169 53.5 53.5z" stroke="none" fill="#26A9B9" fill-rule="nonzero" />
	</g>
	<g>
        <path d="M68.5 78.5C 70.0075 80.1815 71.0075 82.1815 71.5 84.5C 70.5768 83.6971 69.5768 83.5304 68.5 84C 65.6397 86.3603 62.6397 88.527 59.5 90.5C 58.6143 91.325 58.281 92.325 58.5 93.5C 56.9925 91.8185 55.9925 89.8185 55.5 87.5C 58.953 83.4047 63.2863 80.4047 68.5 78.5z" stroke="none" fill="#46A9B9" fill-rule="nonzero" />
	</g>
	<g>
        <path d="M71.5 84.5C 73.341 86.8485 74.6743 89.5152 75.5 92.5C 73.1556 91.6528 71.6556 89.9861 71 87.5C 66.9571 89.19 63.1237 91.3566 59.5 94C 60.3805 94.7083 61.0472 95.5416 61.5 96.5C 59.5 96.5 58.5 95.5 58.5 93.5C 58.281 92.325 58.6143 91.325 59.5 90.5C 62.6397 88.527 65.6397 86.3603 68.5 84C 69.5768 83.5304 70.5768 83.6971 71.5 84.5z" stroke="none" fill="#56A8B8" fill-rule="nonzero" />
	</g>
	<g>
        <path d="M75.5 92.5C 76.7255 93.937 77.7255 95.6036 78.5 97.5C 73.1977 98.6628 67.8643 98.8295 62.5 98C 61.944 97.6174 61.6107 97.1174 61.5 96.5C 61.0472 95.5416 60.3805 94.7083 59.5 94C 63.1237 91.3566 66.9571 89.19 71 87.5C 71.6556 89.9861 73.1556 91.6528 75.5 92.5z" stroke="none" fill="#65A6B8" fill-rule="nonzero" />
	</g>
</g>
</svg>